<svg width="77" height="77" viewBox="0 0 77 77" fill="none" xmlns="http://www.w3.org/2000/svg">
<path d="M64.0643 76.9974H12.933C12.7954 76.9497 12.6631 76.8756 12.5229 76.8545C6.4956 75.9707 1.92619 71.8561 0.425984 65.9448C0.267232 65.323 0.140231 64.6906 0 64.0635C0 47.0256 0 29.9851 0 12.942C0.0529173 12.7568 0.105835 12.5689 0.158752 12.3837C0.534464 11.0924 0.740842 9.7191 1.31764 8.52309C4.00848 2.93994 8.53026 0.0504677 14.7163 0.0292994C30.5756 -0.0236215 46.4349 0.0107771 62.2916 0.0134231C62.617 0.0134231 62.9424 0.0213613 63.2679 0.0372375C69.9434 0.34947 75.6452 5.28169 76.7062 11.8809C77.0528 14.0374 76.9814 16.2733 76.984 18.4722C77.0052 33.0757 77.0026 47.6792 76.992 62.2854C76.9867 69.3133 72.6104 74.899 65.8026 76.6163C65.2285 76.7619 64.6437 76.873 64.0643 77V76.9974ZM38.4603 45.1681C38.8016 45.5836 38.963 45.8138 39.1561 46.0096C42.2888 49.1478 45.4242 52.286 48.5648 55.4162C49.5808 56.4297 50.6947 56.427 51.7213 55.4136C52.9146 54.2335 54.0973 53.0427 55.2827 51.8547C56.4654 50.6666 56.4654 49.6188 55.2747 48.428C52.1738 45.3269 49.0728 42.2284 45.9719 39.1272C45.7814 38.9367 45.5988 38.7356 45.3845 38.5107C45.5988 38.2858 45.7787 38.0847 45.9719 37.8915C49.1072 34.7559 52.2452 31.623 55.3779 28.4822C56.4283 27.4317 56.431 26.3177 55.3938 25.2699C54.2111 24.0765 53.0231 22.8937 51.8325 21.7083C50.6656 20.5467 49.6205 20.5414 48.4643 21.6951C45.3448 24.8121 42.228 27.9318 39.1085 31.0488C38.918 31.2394 38.7169 31.4193 38.4947 31.6283C38.2645 31.4087 38.066 31.2261 37.8729 31.033C34.7375 27.8974 31.6048 24.7566 28.4668 21.6236C27.4164 20.5732 26.3184 20.5758 25.2601 21.6236C24.0853 22.7879 22.9185 23.9601 21.7516 25.1297C20.5187 26.3654 20.5187 27.3761 21.7516 28.6092C24.85 31.7104 27.9535 34.8089 31.0519 37.91C31.2424 38.1005 31.4196 38.3016 31.6869 38.5874C31.4355 38.7965 31.2106 38.9552 31.0175 39.1484C27.9297 42.2257 24.8473 45.3084 21.7649 48.391C20.5081 49.6479 20.5134 50.6507 21.7887 51.9235C22.9052 53.0401 24.0218 54.1541 25.141 55.2681C26.3475 56.4694 27.3741 56.4747 28.5621 55.2892C31.6657 52.1907 34.7666 49.0922 37.8623 45.9884C38.0555 45.7952 38.1904 45.5465 38.4629 45.1708L38.4603 45.1681Z" fill="white"/>
</svg>
