<?xml version="1.0" encoding="UTF-8"?><svg id="_레이어_2" xmlns="http://www.w3.org/2000/svg" viewBox="0 0 223.75 50.77"><defs><style>.cls-1{fill:#898989;}.cls-2{fill:#a9992f;}.cls-3{fill:#0092d0;}</style></defs><g id="Layer_1"><g><g><path class="cls-2" d="m39.23,28.89c-.32-.7-2.25-3.31-5.94-3.37-4.34.08-5.97,3.63-5.99,3.69l-5.06,13.65c-.42,1.11-.29,2.89.64,3.83.71.71,1.75,1.15,2.72,1.15.33,0,.66-.05,1-.16l9.63-3.8c.96-.37,1.47-1.43,1.16-2.34-.15-.51-.68-1.36-1.7-1.36-.22,0-.46.04-.7.13l-8.7,3.24c.07-.21.15-.45.21-.61l4.51-12.3s.71-1.26,2.23-1.28c1.13,0,1.82.53,2.12.83.07.08.2.29.25.45l6.24,16.25c.28.74,1.11,1.29,1.92,1.29h.09c.2-.04,1.24-.22,1.7-.93.21-.34.26-.73.12-1.18l-6.47-17.18Z"/><path class="cls-2" d="m80.51,46.07l-6.47-17.18c-.32-.7-2.25-3.31-5.94-3.37-3.67.07-5.6,2.74-5.99,3.69l-5.06,13.65c-.41,1.12-.28,2.89.65,3.83.71.71,1.75,1.15,2.72,1.15.34,0,.66-.05,1-.16l9.64-3.8c.95-.37,1.47-1.43,1.15-2.34-.15-.51-.68-1.36-1.7-1.36-.22,0-.46.04-.7.13l-8.7,3.24c.06-.2.15-.45.21-.61l4.52-12.3s.7-1.26,2.22-1.28c1.07,0,1.75.46,2.12.83.07.07.19.29.25.45l6.24,16.25c.29.74,1.11,1.29,1.93,1.29h.09c.2-.04,1.24-.22,1.69-.93.22-.34.27-.73.13-1.18Z"/><path class="cls-2" d="m20.19,46.49l-10.68-8.17c.28-.22.56-.48.87-.77,1.46-1.43,9.66-9.56,9.66-9.56.04-.03.07-.07.09-.12.2-.34.23-.64.08-.91-.23-.41-.72-.41-.93-.41h-.31c-.07,0-.14,0-.29-.01h-1.65c-.89,0-1.29.38-1.44.6l-8.45,8.26c-.49.4-1.54.62-2.87.62h-.12v-8.25c-.04-.68-.53-1.15-1.24-1.15h-1.68c-.7,0-1.2.46-1.23,1.18v19.22c.04.67.54,1.12,1.23,1.12h1.69c.71,0,1.2-.46,1.23-1.18l.03-7.15c.4,0,.92-.01,1.27-.03l10.49,7.73c.17.19.66.59,1.55.65h1.49s.03,0,.04,0c.46-.04,1.11-.08,1.38-.58.1-.19.19-.5-.02-.92-.04-.07-.1-.14-.17-.2Z"/><path class="cls-2" d="m52.19,26.66h-1.68c-.7,0-1.2.46-1.24,1.18v19.22c.05.66.54,1.11,1.23,1.12h1.71c.69,0,1.18-.48,1.22-1.19v-19.2c-.04-.68-.53-1.14-1.24-1.14Z"/></g><g><g><path class="cls-1" d="m171.62,28.36c-.42-.53-.95-.93-1.62-1.19-.75-.27-1.49-.42-2.25-.42-1.73,0-3.03.53-3.88,1.61-.41.51-.61,1.04-.61,1.59,0,1.21.76,2.12,2.26,2.74.69.28,1.43.42,2.23.42,1.74,0,3.03-.53,3.87-1.57.4-.49.61-1.02.61-1.59s-.21-1.08-.61-1.59Zm-2.84,2.81c-.33.11-.67.18-1.03.18-.8,0-1.39-.24-1.8-.7-.19-.23-.27-.46-.27-.71,0-.58.34-1,1.04-1.27.34-.13.68-.2,1.04-.2.8,0,1.4.25,1.8.74.18.24.27.48.27.73-.01.55-.36.94-1.04,1.21Z"/><path class="cls-1" d="m174.45,24.9c-.18-.18-.49-.21-.64-.23h-4.8v-.58h4.59v-1.6h-9.22v-.45h9.14v-1.6h-9.14v-.48h9.22v-.85c-.03-.31-.25-.52-.25-.52-.25-.24-.74-.23-.74-.23h-.71,0s-9.96,0-9.96,0v4.81c.08.62.49.92,1.23.92h3.34v.58h-5.71v1.75h13.89v-1.02c-.05-.3-.24-.49-.24-.49Z"/></g><path class="cls-1" d="m158.3,27.52c-.07-.07-.17-.11-.25-.11h-.72v-8.34c-.06-.28-.24-.46-.24-.46-.15-.16-.41-.21-.59-.23h-10.42v1.81h8.76v7.22h-1.45v-3.36h0c-.03-.3-.24-.52-.24-.52-.18-.18-.5-.21-.66-.21h-1.51v4.09h-1.32v-3.39c-.04-.29-.24-.49-.24-.49-.19-.18-.5-.21-.66-.21h-1.48v4.09h-2.29v1.75h13.4v-1.41c-.02-.14-.11-.23-.11-.23Z"/><path class="cls-1" d="m142.19,27.61c-.25-.25-.74-.23-.74-.23h-.7,0-3.8v-1.43h4.58v-1.74h-9.17v-1.17h9.09v-1.74h-9.09v-1.14h9.17v-1.01h-.01c-.03-.3-.24-.5-.24-.5-.18-.19-.5-.23-.65-.24h-10.76v6.63c.08.62.49.92,1.23.92h3.38v1.43h-5.53v1.78h13.48v-1.07c-.05-.29-.25-.48-.25-.48Z"/><path class="cls-1" d="m126.63,25.92v-1.37c-.03-.17-.14-.28-.14-.28-.12-.11-.34-.13-.4-.13h-.79v-5.03c-.04-.31-.25-.51-.25-.51-.25-.25-.74-.23-.74-.23h-10.27v1.81h8.77v3.96h-10.08v1.77h5.72v.85h-4.48v1.78h8.94v4.05h2.48v-5.11c-.05-.29-.25-.48-.25-.48-.25-.25-.73-.23-.73-.23h-.71,0-2.78v-.85h5.69Z"/></g><g><g><path class="cls-1" d="m154.66,36.04h-.71.02s-7.17,0-7.17,0v1.81h6.36v7.7h2.49v-8.81c-.05-.27-.24-.46-.24-.46-.24-.25-.74-.23-.74-.23Z"/><path class="cls-1" d="m158.96,35.87h-1.58v14.37h2.48v-13.66c-.05-.29-.24-.48-.24-.48-.19-.2-.51-.23-.66-.24Z"/></g><g><path class="cls-1" d="m213.18,41.96c.71.3,1.46.46,2.29.46,1.76,0,3.09-.57,3.95-1.73.42-.55.63-1.13.63-1.74s-.21-1.19-.63-1.74c-.43-.59-.98-1.02-1.66-1.29-.76-.32-1.52-.49-2.29-.49-1.78.02-3.09.6-3.97,1.78-.41.56-.61,1.14-.61,1.74,0,1.35.77,2.35,2.29,3.01Zm1.18-4.54c.38-.16.75-.24,1.11-.24.85,0,1.48.3,1.92.9.19.27.29.57.29.87,0,.65-.35,1.14-1.07,1.47-.34.15-.7.23-1.11.23-.86,0-1.51-.28-1.94-.85-.19-.28-.29-.56-.29-.87,0-.7.36-1.2,1.1-1.52Z"/><path class="cls-1" d="m214.76,46.74h2.45v-2.17h4.09v.26h-2.79v1.57h2.79v.49h2.45v-10.31c-.04-.29-.24-.48-.24-.48-.19-.2-.52-.23-.67-.24h-1.54v6.92h-11.08v1.78h4.55v2.17Z"/><path class="cls-1" d="m222.85,48.31h-9.29v-1.63c-.03-.29-.23-.49-.23-.49-.19-.19-.52-.22-.66-.23h-1.54v3.2c.08.62.49.93,1.23.93h11.4v-1.05c-.04-.3-.25-.5-.25-.5-.18-.19-.51-.22-.66-.23Z"/></g><g><path class="cls-1" d="m207.23,36.9c-.05-.27-.23-.45-.23-.45-.17-.17-.46-.21-.63-.23h-3.64v-.41c-.03-.17-.14-.28-.14-.28-.09-.1-.26-.12-.36-.14h-1.98v.83h-4.52v1.75h2.1c-.34.41-.51.82-.51,1.24-.01,1.01.68,1.77,2.06,2.26.65.23,1.37.35,2.13.35,1.64,0,2.86-.43,3.64-1.29.37-.4.56-.84.57-1.3,0-.48-.18-.89-.55-1.26h2.07v-1.07Zm-4.75,3.07c-.31.09-.63.14-.99.14-.75,0-1.29-.17-1.62-.52-.17-.16-.26-.34-.26-.54,0-.43.31-.74.92-.94.3-.09.63-.14.96-.14.75,0,1.3.19,1.64.56.17.18.26.36.26.56-.02.4-.32.7-.91.89Z"/><path class="cls-1" d="m203.75,44.82c-.74-.27-1.49-.42-2.25-.42-1.74,0-3.02.53-3.87,1.61-.41.52-.61,1.04-.61,1.59,0,1.22.75,2.13,2.25,2.74.68.28,1.43.42,2.23.42,1.73,0,3.03-.53,3.87-1.57.4-.49.61-1.03.61-1.59s-.21-1.08-.61-1.59c-.42-.53-.96-.92-1.63-1.19Zm-1.21,4c-.33.11-.67.18-1.04.18-.8,0-1.4-.24-1.8-.7-.18-.23-.27-.46-.27-.71,0-.58.34-1,1.04-1.27.33-.13.68-.2,1.03-.2.81,0,1.41.25,1.8.74.18.24.27.48.27.73,0,.55-.36.94-1.03,1.22Z"/><path class="cls-1" d="m207.58,42.23h-13.03v1.81h13.9v-1.11c-.05-.29-.24-.47-.24-.47-.17-.17-.46-.22-.63-.23Z"/></g><g><path class="cls-1" d="m191.91,36.57c-.05-.28-.24-.46-.24-.46-.18-.2-.52-.23-.66-.24h-1.59v10.16h2.5v-9.47Z"/><path class="cls-1" d="m181.04,43.59l1.56-2.69c1.74.53,2.71,1.42,2.92,2.69h2.54c-.37-2.14-1.82-3.68-4.38-4.61l.78-1.14h3.4v-1.08c-.04-.3-.23-.49-.23-.49-.19-.19-.51-.23-.67-.23h-8.14v1.81h3.04l-3.44,5.74h2.62Z"/><path class="cls-1" d="m192.12,49.02c-.04-.3-.25-.51-.25-.51-.15-.16-.41-.22-.58-.23h-7.87v-2.6c-.05-.29-.25-.48-.25-.48-.17-.18-.46-.22-.62-.23h-1.62v4.23c.06.59.49.89,1.27.89h9.92v-1.08h0Z"/></g><g><path class="cls-1" d="m168.29,39.22c2.47.38,4.15,1.16,5.04,2.34h2.64c-1.25-2.02-3.24-3.31-5.95-3.87-.12-.03-.24-.06-.35-.08l1.75-1.65h-2.91l-5.63,5.6h2.92l2.48-2.34Z"/><path class="cls-1" d="m176.41,43.69v-1.04h0c-.03-.3-.25-.51-.25-.51-.17-.17-.46-.22-.62-.23h-13.02v1.78h5.71v.5h-4.47v1.63h9.02v.53h-9.02v2.92c.04.6.43.91,1.19.91h10.33v-.89c-.04-.31-.25-.51-.25-.51-.25-.25-.74-.23-.74-.23h-.7,0-7.4v-.55h8.98v-3.06c-.04-.3-.24-.51-.24-.51-.17-.18-.46-.22-.62-.23h-3.6v-.5h5.69Z"/></g><path class="cls-1" d="m128.04,39.2c0-.29-.04-.47-.04-.47-.18-.47-.65-.53-.83-.53h-.92v-1.55c-.02-.18-.05-.28-.05-.28-.14-.39-.49-.5-.71-.52h-1.73v8.82h-1.35v-7.76c0-.23-.05-.37-.05-.37-.16-.44-.59-.52-.78-.52h-8.05v1.8h6.39v6.86h-2.17v-3.2c-.01-.23-.04-.38-.04-.38-.15-.38-.47-.49-.69-.53h-1.75v4.11h-2.54v1.8h11.03v3.75h2.49v-10.24h1.79v-.78Z"/><g><path class="cls-1" d="m142.19,44.55h.07s-10.25,0-10.25,0v1.77h8.62v3.91h2.49v-4.9c-.01-.14-.04-.23-.04-.23-.22-.57-.88-.54-.88-.54Z"/><path class="cls-1" d="m134.53,43.85c1.78,0,3.12-.61,4.01-1.83.41-.56.61-1.14.61-1.76,0-.82-.34-1.5-1.04-2.07-.06-.04-.14-.1-.19-.14h1.68v-.99c-.02-.16-.04-.26-.04-.26-.16-.41-.54-.51-.74-.53h-3.02v-.35c0-.46-.5-.46-.5-.46h-2v.81h-3.78v1.78h1.65c-.84.62-1.25,1.38-1.25,2.24,0,.6.21,1.17.63,1.74.42.56.97,1.01,1.68,1.33.71.33,1.48.5,2.3.5Zm-1.08-5.05c.36-.16.73-.24,1.11-.24.85,0,1.49.29,1.93.89.2.28.3.58.3.88,0,.67-.39,1.18-1.13,1.5-.33.15-.7.22-1.09.22-.86,0-1.49-.28-1.92-.87-.21-.27-.32-.55-.32-.86,0-.7.37-1.21,1.12-1.53Z"/><path class="cls-1" d="m144.19,37.88h-1.07v-1.28c-.01-.14-.04-.23-.04-.23-.14-.39-.5-.5-.71-.52h-1.73v8.07h2.49v-4.23h1.79v-1.09c0-.12-.03-.19-.03-.19-.14-.37-.48-.48-.69-.52Z"/></g></g><g><g><path class="cls-3" d="m79.67,19.81c-.55,0-1.1-.15-1.61-.4-.85-.42-1.47-1.12-1.71-1.92-.18-.6-.12-1.22.17-1.74.43-.77,1.3-1.22,2.34-1.21.54,0,1.1.15,1.6.4.83.42,1.45,1.11,1.7,1.89.19.6.15,1.21-.12,1.72-.42.8-1.31,1.27-2.36,1.26Zm-.83-4.67c-.82,0-1.5.33-1.81.9-.22.38-.25.82-.11,1.27.19.64.71,1.21,1.41,1.56.43.22.89.33,1.35.34.83.01,1.52-.34,1.84-.94.19-.38.22-.81.08-1.26-.2-.63-.72-1.2-1.41-1.54-.42-.21-.89-.33-1.35-.34Z"/><path class="cls-3" d="m80.04,22.23c-1.04,0-2.11-.28-3.09-.77-1.63-.82-2.84-2.17-3.29-3.7-.34-1.15-.22-2.32.33-3.29.82-1.43,2.47-2.27,4.43-2.25,1.04.01,2.11.28,3.09.77,1.58.8,2.77,2.11,3.25,3.59.36,1.12.29,2.26-.2,3.23-.77,1.52-2.5,2.45-4.52,2.42Zm-1.63-9.26c-1.68-.02-3.09.68-3.77,1.87-.46.8-.55,1.73-.27,2.7.4,1.33,1.46,2.52,2.91,3.25.88.44,1.84.68,2.77.69,1.73.02,3.2-.75,3.85-2.01.41-.8.46-1.71.15-2.65-.42-1.3-1.47-2.45-2.88-3.16-.87-.44-1.83-.68-2.77-.69Z"/><path class="cls-3" d="m80.41,24.82c-1.57-.02-3.17-.42-4.64-1.16-2.48-1.25-4.28-3.29-4.95-5.6-.51-1.73-.31-3.48.54-4.93,1.23-2.09,3.7-3.32,6.58-3.29,1.57.02,3.17.41,4.64,1.15,4.32,2.17,6.35,6.62,4.62,10.14-1.14,2.31-3.74,3.72-6.79,3.69Zm-2.47-14.07c-2.57-.03-4.75,1.04-5.81,2.85-.74,1.25-.9,2.7-.46,4.21.6,2.08,2.24,3.92,4.5,5.05,1.35.68,2.82,1.05,4.26,1.06,2.7.03,4.99-1.19,5.98-3.19,1.48-3.01-.41-7.02-4.22-8.93-1.34-.68-2.81-1.04-4.24-1.05Z"/></g><g><path class="cls-3" d="m87.1,8.7c-.7-.01-1.61-.31-2.47-.83-1.12-.66-1.92-1.52-2.1-2.24-.07-.29-.03-.54.1-.75.14-.21.44-.47,1.1-.46.71,0,1.61.31,2.48.82,1.34.8,2.5,2.11,2.02,2.97-.13.23-.43.5-1.12.49Zm-3.38-3.69c-.3,0-.51.07-.59.19-.04.07-.05.16-.02.29.11.46.71,1.21,1.82,1.87.78.46,1.59.74,2.18.75.3,0,.52-.07.6-.19.19-.33-.42-1.33-1.8-2.15-.77-.46-1.59-.74-2.18-.74Z"/><path class="cls-3" d="m88.8,10.75c-1.33-.01-3.16-.63-4.9-1.65-2.22-1.31-3.85-2.99-4.13-4.29-.1-.46-.04-.86.18-1.18.23-.33.72-.71,1.8-.7,1.33.01,3.17.63,4.9,1.65,2.55,1.5,4.82,3.89,4.02,5.37-.21.38-.7.83-1.87.81Zm-7.06-7.08c-.59,0-1.01.13-1.18.38-.1.14-.13.35-.07.59.2.91,1.45,2.44,3.79,3.81,1.63.96,3.33,1.54,4.53,1.55.63,0,1.06-.14,1.21-.42.42-.77-1.01-2.76-3.74-4.36-1.63-.96-3.33-1.54-4.54-1.55Z"/><path class="cls-3" d="m90.69,12.77c-1.99-.02-4.79-.98-7.48-2.55-3.45-2.01-5.93-4.54-6.31-6.43-.12-.61-.02-1.16.29-1.58.44-.6,1.29-.91,2.44-.9,2,.02,4.8.97,7.49,2.54,3.79,2.21,7.24,5.69,6.17,7.78-.27.53-.94,1.15-2.6,1.13Zm-11.07-10.56c-.85-.01-1.46.18-1.72.54-.16.22-.2.5-.13.86.33,1.6,2.75,4,5.89,5.83,2.57,1.5,5.2,2.4,7.05,2.42.94.01,1.57-.22,1.79-.65.6-1.16-1.65-4.15-5.83-6.59-2.52-1.47-5.22-2.4-7.05-2.42Z"/></g><g><path class="cls-3" d="m66.18,3.79c-.45,0-1.05-.06-1.11-.51-.1-.78,2.06-1.29,2.73-1.43.71-.15,1.4-.23,1.93-.22.65,0,.99.13,1.09.42.04.12.03.25-.04.37-.34.62-2.21,1.05-2.59,1.13-.75.16-1.46.24-2,.24Zm-.38-.63c.09.01.21.03.38.03.5,0,1.18-.08,1.87-.22,1.08-.23,1.76-.52,2.05-.71-.09-.01-.21-.02-.39-.02-.48,0-1.13.07-1.8.21-1.1.23-1.81.53-2.11.72Z"/><path class="cls-3" d="m64.49,4.89c-.51,0-2.07-.02-2.09-.93-.04-1.5,5.1-2.57,5.32-2.62,1.32-.27,2.6-.42,3.6-.4,1.2.01,1.86.23,2.05.68.06.13.1.35-.03.6-.47.92-2.94,1.75-4.93,2.19-1.44.31-2.83.49-3.91.47Zm6.81-3.2c-.95-.01-2.17.13-3.44.39-2.94.6-4.64,1.54-4.73,1.87.04,0,.39.18,1.36.19,1.03.01,2.35-.15,3.75-.46,2.92-.64,4.34-1.51,4.43-1.81-.04,0-.39-.17-1.37-.18Z"/><path class="cls-3" d="m63.1,6.48c-1.67-.02-2.77-.29-3.27-.82-.21-.23-.32-.5-.31-.79.09-2.17,6.73-3.6,8.07-3.87,2.06-.36,3.99-.55,5.44-.53,1.72.02,2.66.32,2.96.94.1.2.18.54-.02.97-.58,1.23-3.43,2.58-7.25,3.43-2.02.45-4.02.69-5.62.67Zm9.92-5.11c-1.38-.02-3.3.17-5.27.52-4.75.94-7.31,2.35-7.33,3.01,0,.02,0,.06.06.13.23.26,1.06.53,2.63.55,1.54.02,3.47-.21,5.42-.65,3.8-.85,6.26-2.15,6.64-2.95.06-.12.03-.16.02-.18,0,0-.22-.41-2.17-.43Z"/></g><g><path class="cls-3" d="m54.36,9.02c-.64,0-.86-.31-.93-.49-.29-.73.79-1.73,2.01-2.34.75-.38,1.5-.59,2.07-.59.58,0,.82.25.92.46.32.73-.76,1.75-2,2.37-.75.38-1.5.59-2.06.58Zm3.14-2.81c-.46,0-1.14.19-1.79.52-1.29.65-1.79,1.41-1.73,1.59.02.04.13.1.38.1.46,0,1.13-.19,1.79-.52,1.31-.66,1.8-1.41,1.73-1.59-.02-.04-.14-.1-.38-.1Z"/><path class="cls-3" d="m52.38,10.28c-.83,0-1.12-.36-1.21-.66-.35-1.14,1.86-2.88,4.05-4.01,1.63-.84,3.21-1.33,4.22-1.32.76,0,1.05.31,1.17.55.53,1.13-1.71,2.93-4.01,4.12-1.64.84-3.21,1.33-4.22,1.32Zm7.06-5.24c-.89-.01-2.37.47-3.88,1.24-2.59,1.33-3.79,2.76-3.68,3.12.01.05.17.13.5.13.88,0,2.37-.47,3.88-1.24,2.73-1.41,3.81-2.83,3.67-3.12-.02-.03-.14-.12-.5-.13Z"/><path class="cls-3" d="m51.04,12.23c-1.41-.02-1.88-.6-2.03-1.09-.52-1.76,2.61-4.43,5.98-6.16,2.32-1.19,4.64-1.88,6.21-1.87,1.24.02,1.73.48,1.93.87.18.34.2.75.05,1.2-.48,1.52-2.87,3.59-5.94,5.17-2.32,1.19-4.64,1.89-6.2,1.87Zm10.15-8.21c-1.41-.01-3.63.66-5.79,1.77-3.79,1.94-5.78,4.28-5.54,5.09.12.4.87.44,1.19.45,1.42.01,3.59-.65,5.79-1.77,3.3-1.7,5.16-3.59,5.5-4.64.07-.22.07-.39,0-.51-.12-.24-.54-.38-1.16-.39Z"/></g><g><path class="cls-3" d="m99.8,21.31c-.78-.01-1.64-1.14-2.12-2.18-.46-1-.62-1.98-.41-2.56.11-.29.29-.42.42-.48.09-.04.2-.06.3-.06.75,0,1.59,1.05,2.07,2.07.5,1.05.68,2.1.45,2.68-.11.29-.3.42-.45.47-.09.03-.18.05-.27.05Zm-1.8-4.68c-.11.04-.14.1-.16.15-.12.33-.05,1.13.39,2.1.58,1.27,1.39,1.91,1.65,1.82.04-.02.07-.06.1-.13.14-.34.06-1.18-.43-2.2-.56-1.18-1.25-1.73-1.54-1.73Z"/><path class="cls-3" d="m100.79,23.91c-1.34-.01-3.21-2.64-4.26-5.17-.79-1.95-1.03-3.59-.61-4.39.18-.35.45-.48.64-.51,1.15-.25,2.81,1.79,3.86,3.8.98,1.88,1.81,4.45,1.3,5.63-.17.4-.45.55-.65.6-.09.03-.19.04-.28.04Zm-4.02-9.34c-.08,0-.13.02-.19.13-.24.46-.14,1.83.64,3.75,1.1,2.68,2.79,4.7,3.58,4.71.03,0,.05,0,.07,0,.03-.01.11-.03.17-.18.29-.68-.11-2.73-1.28-4.98-1.21-2.32-2.5-3.42-2.99-3.42Z"/><path class="cls-3" d="m101.39,26.71c-1.99-.02-4.73-3.87-6.31-7.48-1.33-3.06-1.81-5.79-1.25-7.15.21-.53.56-.75.8-.84,1.5-.58,4.1,1.95,6.15,5.97,1.83,3.59,2.61,7.04,1.93,8.58-.25.57-.64.78-.93.87-.13.03-.26.05-.4.05Zm-6.27-14.65c-.06,0-.12,0-.17.03-.12.04-.22.16-.3.35-.38.91-.14,3.25,1.25,6.44,1.8,4.14,4.3,6.93,5.5,6.94.05,0,.11,0,.15-.02.1-.03.24-.09.35-.36.46-1.06-.05-4.16-1.91-7.8-1.77-3.48-3.87-5.56-4.87-5.57Z"/></g><g><path class="cls-3" d="m101.82,34.02c-.84,0-1.56-1.04-1.72-2.43-.08-.7,0-1.38.21-1.92.25-.6.63-.96,1.1-1.02.91-.1,1.73,1.03,1.86,2.55.13,1.49-.43,2.7-1.31,2.82-.05,0-.1,0-.15,0Zm-.28-4.78c-.29.03-.52.27-.68.66-.18.44-.24,1.03-.17,1.62.14,1.22.76,1.96,1.2,1.9.46-.07.9-.98.79-2.17-.1-1.19-.67-2.01-1.15-2.01Z"/><path class="cls-3" d="m101.88,36.28c-1.38-.02-2.66-1.93-3.03-4.56-.28-1.98.04-3.9.82-4.89.35-.44.77-.69,1.23-.73,1.5-.14,2.94,2.07,3.23,5,.26,2.74-.6,4.96-2.03,5.16-.07.01-.14.02-.22.02Zm-.84-9.43h-.08c-.26.03-.5.17-.71.45-.65.82-.92,2.56-.67,4.32.36,2.51,1.53,4.04,2.42,3.91.86-.12,1.62-1.89,1.38-4.34-.25-2.58-1.41-4.32-2.34-4.33Z"/><path class="cls-3" d="m101.71,38.62c-1.99-.02-3.85-2.82-4.44-6.66-.46-3.07.01-6.04,1.21-7.55.51-.64,1.13-1.01,1.81-1.06.06,0,.12,0,.18,0,2.19.02,4.19,3.4,4.55,7.69.33,3.99-.94,7.24-2.96,7.56-.11.02-.23.03-.36.03Zm-1.25-14.38s-.07,0-.11,0c-.43.03-.82.27-1.18.72-1.04,1.31-1.45,4.07-1.03,6.86.59,3.86,2.41,6.1,3.78,5.88,1.31-.21,2.53-2.79,2.21-6.6-.31-3.7-1.99-6.85-3.67-6.86Z"/></g><g><path class="cls-3" d="m91.91,19.02c-.55,0-1.18-.24-1.77-.67-1.32-.96-2.02-2.53-1.56-3.5.45-.94,1.92-.94,3.16.02,1.2.93,1.85,2.35,1.5,3.3-.2.55-.69.86-1.33.85Zm-2.05-4.3c-.25,0-.59.06-.74.39-.33.69.31,1.98,1.37,2.75.49.36.99.56,1.43.56.27,0,.63-.07.77-.46.25-.69-.33-1.87-1.3-2.62-.51-.4-1.06-.63-1.52-.63Z"/><path class="cls-3" d="m92.71,21.24c-1.01-.01-2.17-.44-3.28-1.22-2.65-1.87-4.06-5.01-3.07-6.85.43-.8,1.24-1.24,2.29-1.22,1.15.01,2.49.56,3.69,1.52,2.19,1.74,3.41,4.37,2.85,6.13-.33,1.04-1.26,1.66-2.49,1.65Zm-4.06-8.55c-.54,0-1.26.13-1.64.83-.8,1.49.53,4.24,2.84,5.87.98.69,2,1.08,2.87,1.09.91.01,1.54-.39,1.77-1.12.46-1.45-.68-3.78-2.6-5.31-1.07-.85-2.25-1.35-3.24-1.36Z"/><path class="cls-3" d="m93.41,23.61c-1.48-.02-3.13-.61-4.76-1.73-4.21-2.86-6.42-7.79-4.72-10.56.66-1.08,1.83-1.66,3.31-1.64,1.79.02,3.87.89,5.72,2.4,3.11,2.53,4.91,6.37,4.2,8.95-.45,1.64-1.85,2.61-3.75,2.58Zm-6.18-13.03c-.82,0-1.92.2-2.54,1.22-1.43,2.33.7,6.79,4.46,9.34,1.47,1,2.99,1.56,4.28,1.57,1.49.02,2.54-.69,2.88-1.93.61-2.21-1.11-5.72-3.91-8-1.69-1.38-3.58-2.18-5.17-2.2Z"/></g><g><path class="cls-3" d="m94.72,30.73c-.55,0-1.14-.32-1.68-.89-1.05-1.11-1.52-2.83-1.04-3.84.23-.48.65-.75,1.16-.75.56,0,1.17.33,1.71.91.99,1.06,1.46,2.68,1.07,3.69-.21.56-.65.87-1.22.87Zm-1.56-4.87c-.28,0-.49.13-.62.41-.37.78.06,2.23.94,3.16.76.8,1.64.94,1.91.21.31-.8-.12-2.17-.95-3.06-.42-.45-.89-.72-1.28-.72Z"/><path class="cls-3" d="m95.39,33.32c-1.01-.01-2.13-.6-3.15-1.66-2.12-2.21-3.02-5.57-2-7.5.43-.82,1.17-1.26,2.07-1.25,1.04,0,2.22.65,3.25,1.75,1.83,1.98,2.75,5.04,2.09,6.95-.38,1.1-1.2,1.72-2.26,1.71Zm-3.09-9.66c-.62,0-1.1.29-1.4.85-.85,1.6.03,4.7,1.88,6.62.86.9,1.82,1.42,2.62,1.43.74,0,1.29-.42,1.55-1.2.58-1.68-.28-4.4-1.93-6.19-.88-.95-1.87-1.5-2.72-1.51Z"/><path class="cls-3" d="m96.01,36.13c-1.49-.02-3.15-.89-4.66-2.46-3.28-3.38-4.63-8.64-2.96-11.48.65-1.1,1.69-1.69,2.95-1.68,1.58.02,3.36.98,4.9,2.66,2.7,2.94,4.07,7.34,3.18,10.25-.52,1.74-1.77,2.73-3.4,2.71Zm-4.69-14.72c-.94-.01-1.69.41-2.17,1.24-1.46,2.47-.13,7.33,2.83,10.39,1.34,1.39,2.78,2.17,4.03,2.18,1.23.01,2.14-.72,2.55-2.08.78-2.58-.53-6.7-2.99-9.37-1.37-1.49-2.92-2.35-4.26-2.37Z"/></g><g><path class="cls-3" d="m73.91,9.25c-.46,0-.91-.08-1.32-.23-.81-.29-1.36-.8-1.52-1.42-.12-.47.02-.96.38-1.35.52-.57,1.43-.9,2.45-.89.41,0,.81.07,1.19.19.81.26,1.39.75,1.6,1.34.14.43.08.88-.2,1.27-.47.68-1.46,1.1-2.59,1.09Zm-.01-3.29c-.84,0-1.61.26-2.01.7-.23.25-.32.53-.24.8.09.41.52.78,1.13,1,.35.13.74.2,1.13.2.92.01,1.74-.31,2.09-.83.17-.24.21-.49.13-.73-.14-.41-.59-.77-1.21-.97-.32-.1-.66-.16-1.02-.16Z"/><path class="cls-3" d="m73.89,11.27c-.93-.01-1.86-.18-2.69-.49-1.53-.58-2.55-1.57-2.79-2.73-.19-.91.12-1.83.89-2.58,1.01-.98,2.72-1.57,4.57-1.54.77,0,1.52.12,2.21.33,1.53.47,2.66,1.37,3.08,2.47.29.75.23,1.54-.19,2.26-.83,1.41-2.82,2.31-5.08,2.28Zm-.02-6.6c-1.63-.02-3.18.49-4.04,1.33-.57.56-.82,1.23-.68,1.89.19.89,1.03,1.69,2.32,2.18.76.28,1.59.44,2.43.45,1.98.02,3.76-.74,4.44-1.92.3-.52.35-1.06.14-1.6-.34-.87-1.31-1.63-2.61-2.02-.63-.19-1.3-.29-2-.3Z"/><path class="cls-3" d="m73.85,13.69c-1.47-.01-2.95-.31-4.28-.84-2.27-.92-3.74-2.43-4.03-4.16-.24-1.44.33-2.86,1.62-3.99,1.54-1.35,4.04-2.15,6.68-2.12,1.11.01,2.18.17,3.17.46,2.24.65,4.01,1.99,4.71,3.58.47,1.07.46,2.2-.04,3.26-1.1,2.32-4.25,3.85-7.84,3.81Zm-.02-10.21c-2.42-.03-4.7.68-6.09,1.89-1.05.92-1.52,2.04-1.33,3.16.24,1.41,1.51,2.68,3.48,3.48,1.23.49,2.6.76,3.97.78,3.25.04,6.07-1.29,7.03-3.3.39-.83.4-1.67.03-2.5-.6-1.35-2.15-2.51-4.14-3.09-.92-.27-1.91-.41-2.94-.42Z"/></g><g><path class="cls-3" d="m60.68,13.71c-.13,0-.25-.01-.38-.03-.71-.09-1.24-.43-1.49-.96-.25-.51-.18-1.13.17-1.73.67-1.13,2.24-1.92,3.6-1.79.73.07,1.31.41,1.58.93.26.49.23,1.09-.09,1.69-.59,1.09-2.05,1.9-3.39,1.89Zm1.64-3.91c-1.1-.01-2.3.64-2.82,1.51-.25.42-.31.83-.15,1.15.16.34.53.56,1.04.63,1.19.16,2.63-.58,3.16-1.56.22-.41.25-.81.09-1.11-.18-.34-.58-.56-1.11-.61-.07,0-.14-.01-.21-.01Z"/><path class="cls-3" d="m59.97,15.84c-.28,0-.56-.03-.83-.07-1.31-.2-2.27-.85-2.71-1.82-.44-.97-.3-2.12.39-3.24,1.3-2.1,4.24-3.57,6.79-3.37,1.41.11,2.51.73,3.04,1.7.49.89.44,1.99-.13,3.09-1.12,2.15-3.94,3.74-6.56,3.72Zm3.24-7.77c-2.19-.02-4.67,1.28-5.76,3.04-.55.9-.68,1.8-.34,2.53.33.73,1.09,1.22,2.15,1.39.23.04.48.06.73.06,2.32.02,4.91-1.43,5.89-3.31.45-.87.5-1.72.14-2.38-.41-.74-1.3-1.22-2.45-1.31-.12-.01-.24-.01-.35-.02Z"/><path class="cls-3" d="m59.29,18.18c-.49,0-.97-.05-1.43-.13-1.91-.34-3.3-1.32-3.91-2.74-.62-1.44-.37-3.22.69-4.88,1.95-3.05,6.25-5.21,10-4.97,2.14.13,3.84,1.03,4.66,2.47.74,1.29.71,2.9-.09,4.53-1.63,3.31-5.9,5.77-9.92,5.72Zm4.88-11.84c-3.31-.04-7.09,1.93-8.79,4.58-.89,1.4-1.12,2.87-.62,4.03.5,1.14,1.65,1.93,3.25,2.21.41.08.84.11,1.29.12,3.64.04,7.65-2.25,9.11-5.22.66-1.34.7-2.65.11-3.67-.67-1.17-2.11-1.91-3.94-2.03-.14,0-.27-.01-.41-.01Z"/></g><path class="cls-3" d="m104.41,31.45c-1.42-12.39-8.38-22.16-18.36-26.85-18.2-8.55-34.02,3.32-34.19,3.42-1.65.95-2.53,3.17-2.78,2.84-.25-.33.15-2.34,2.21-4.05.16-.13,16.38-12.5,35.39-3.57,10.46,4.92,17.44,15.21,18.71,27.53.35,3.47-.55,5.74-2.19,7.17-1.28,1.11,1.76-1.83,1.22-6.49Z"/></g></g></g></svg>