<svg width="893" height="407" viewBox="0 0 893 407" fill="none" xmlns="http://www.w3.org/2000/svg">
<path d="M85.7045 400L84 399.673C103.015 327.659 150.801 262.262 218.557 215.532C385.257 100.739 629.666 122.765 764.461 264.728C801.626 303.871 827.803 349.726 841 398.795L839.295 399.125C799.047 248.614 644.147 143.496 462.617 143.496C283.464 143.496 124.951 251.371 85.7045 400Z" fill="#3F3D56"/>
<path d="M793.813 146.288C793.813 172.519 772.532 193.783 746.281 193.783C720.029 193.783 698.749 172.519 698.749 146.288C698.749 120.058 720.029 98.7938 746.281 98.7938C772.532 98.7938 793.813 120.058 793.813 146.288Z" fill="#FFE900"/>
<path d="M726.475 336.17H728.224V405.249H726.475V336.17Z" fill="#3F3D56"/>
<path d="M744.377 344.974C744.488 369.128 727.481 388.788 727.481 388.788C727.481 388.788 710.291 369.286 710.18 345.131C710.069 320.975 727.077 301.315 727.077 301.315C727.077 301.315 744.265 320.818 744.377 344.974Z" fill="#007FFF"/>
<path d="M744.377 344.974C744.488 369.128 727.481 388.788 727.481 388.788C727.481 388.788 710.291 369.286 710.18 345.131C710.069 320.975 727.077 301.315 727.077 301.315C727.077 301.315 744.265 320.818 744.377 344.974Z" fill="#1D2088"/>
<path d="M415.691 147.324C415.691 162.414 403.448 174.648 388.345 174.648C373.243 174.648 361 162.414 361 147.324C361 132.233 373.243 120 388.345 120C403.448 120 415.691 132.233 415.691 147.324Z" fill="#007FFF" fill-opacity="0.4"/>
<path d="M357.365 213.167C357.365 223.753 348.777 232.334 338.182 232.334C327.588 232.334 319 223.753 319 213.167C319 202.581 327.588 194 338.182 194C348.777 194 357.365 202.581 357.365 213.167Z" fill="#007FFF" fill-opacity="0.4"/>
<path d="M160.373 239.643C160.373 250.229 151.784 258.811 141.19 258.811C130.596 258.811 122.007 250.229 122.007 239.643C122.007 229.057 130.596 220.475 141.19 220.475C151.784 220.475 160.373 229.057 160.373 239.643Z" fill="#007FFF" fill-opacity="0.4"/>
<path d="M735.715 169.258C735.715 184.348 723.473 196.581 708.37 196.581C693.268 196.581 681.024 184.348 681.024 169.258C681.024 154.167 693.268 141.934 708.37 141.934C723.473 141.934 735.715 154.167 735.715 169.258Z" fill="#007FFF" fill-opacity="0.4"/>
<path d="M8.55828 397.567C10.0407 403.043 15.1182 406.434 15.1182 406.434C15.1182 406.434 17.7925 400.948 16.3096 395.472C14.8275 389.997 9.74997 386.606 9.74997 386.606C9.74997 386.606 7.07583 392.092 8.55828 397.567Z" fill="#3F3D56"/>
<path d="M10.7366 396.391C14.8043 400.348 15.3012 406.43 15.3012 406.43C15.3012 406.43 9.20291 406.097 5.13521 402.141C1.06752 398.184 0.570679 392.102 0.570679 392.102C0.570679 392.102 6.66889 392.435 10.7366 396.391Z" fill="#007FFF"/>
<path d="M544.128 397.567C545.61 403.043 550.688 406.434 550.688 406.434C550.688 406.434 553.361 400.948 551.879 395.472C550.396 389.997 545.319 386.606 545.319 386.606C545.319 386.606 542.645 392.092 544.128 397.567Z" fill="#3F3D56"/>
<path d="M546.306 396.391C550.373 400.348 550.871 406.43 550.871 406.43C550.871 406.43 544.772 406.097 540.704 402.141C536.636 398.184 536.14 392.102 536.14 392.102C536.14 392.102 542.237 392.435 546.306 396.391Z" fill="#007FFF"/>
<path d="M18.6276 356.409L15.0073 350.38L48.7987 321.438H135.692V329.88L104.314 363.646L68.1081 370.88L18.6276 356.409Z" fill="#3F3D56"/>
<path d="M150.65 338.423V319.555H139.274V325.505L135.692 321.438L106.728 350.38L101.9 355.203L95.8663 379.322L106.728 405.851H162.243V351.586L150.65 338.423Z" fill="#CCCCCC"/>
<path d="M15.0073 350.38H106.728V405.851H15.0073V350.38Z" fill="#F2F2F2"/>
<path d="M74.746 367.866H94.0553V384.748H74.746V367.866Z" fill="#3F3D56"/>
<path d="M50.0056 367.263H66.9018V405.851H50.0056V367.263Z" fill="#CCCCCC"/>
<path d="M30.6963 373.292V367.263H23.4556V373.292H30.0924H30.6963Z" fill="#3F3D56"/>
<path d="M30.0924 378.116H23.4556V384.145H30.6963V378.116H30.0924Z" fill="#3F3D56"/>
<path d="M35.5237 367.263H42.7648V373.292H35.5237V367.263Z" fill="#3F3D56"/>
<path d="M35.5237 378.116H42.7648V384.145H35.5237V378.116Z" fill="#3F3D56"/>
<path d="M132.675 373.896V367.866H125.433V373.896H132.071H132.675Z" fill="#3F3D56"/>
<path d="M132.071 378.719H125.433V384.747H132.675V378.719H132.071Z" fill="#3F3D56"/>
<path d="M137.502 367.866H144.743V373.895H137.502V367.866Z" fill="#3F3D56"/>
<path d="M137.502 378.719H144.743V384.748H137.502V378.719Z" fill="#3F3D56"/>
<path d="M367.797 356.409L364.177 350.38L397.969 321.438H484.862V329.88L453.485 363.646L417.278 370.88L367.797 356.409Z" fill="#3F3D56"/>
<path d="M499.82 338.423V319.555H488.444V325.505L484.862 321.438L455.898 350.38L451.07 355.203L445.036 379.322L455.898 405.851H511.413V351.586L499.82 338.423Z" fill="#CCCCCC"/>
<path d="M364.177 350.38H455.898V405.851H364.177V350.38Z" fill="#F2F2F2"/>
<path d="M423.916 367.866H443.225V384.748H423.916V367.866Z" fill="#3F3D56"/>
<path d="M399.176 367.263H416.072V405.851H399.176V367.263Z" fill="#CCCCCC"/>
<path d="M379.866 373.292V367.263H372.626V373.292H379.262H379.866Z" fill="#3F3D56"/>
<path d="M379.262 378.116H372.626V384.145H379.866V378.116H379.262Z" fill="#3F3D56"/>
<path d="M384.694 367.263H391.935V373.292H384.694V367.263Z" fill="#3F3D56"/>
<path d="M384.694 378.116H391.935V384.145H384.694V378.116Z" fill="#3F3D56"/>
<path d="M481.845 373.896V367.866H474.603V373.896H481.241H481.845Z" fill="#3F3D56"/>
<path d="M481.241 378.719H474.603V384.747H481.845V378.719H481.241Z" fill="#3F3D56"/>
<path d="M486.672 367.866H493.913V373.895H486.672V367.866Z" fill="#3F3D56"/>
<path d="M486.672 378.719H493.913V384.748H486.672V378.719Z" fill="#3F3D56"/>
<path d="M204.482 255.116L198.448 250.292L232.24 220.144H317.926V246.675L262.411 284.057L204.482 255.116Z" fill="#3F3D56"/>
<path d="M333.548 237.056V220.747H322.172V224.741L317.926 220.144L290.168 250.292L279.307 257.528L262.466 380.474L287.864 405.852H346.891V251.498L333.548 237.056Z" fill="#CCCCCC"/>
<path d="M198.448 250.292H290.169V405.852H198.448V250.292Z" fill="#F2F2F2"/>
<path d="M234.05 367.866H250.946V405.851H234.05V367.866Z" fill="#CCCCCC"/>
<path d="M215.947 378.719V372.69H208.706V378.719H215.344H215.947Z" fill="#3F3D56"/>
<path d="M215.344 383.542H208.706V389.572H215.947V383.542H215.344Z" fill="#3F3D56"/>
<path d="M220.775 372.69H228.016V378.719H220.775V372.69Z" fill="#3F3D56"/>
<path d="M220.775 383.542H228.016V389.572H220.775V383.542Z" fill="#3F3D56"/>
<path d="M265.427 378.719V372.69H258.187V378.719H264.825H265.427Z" fill="#3F3D56"/>
<path d="M264.825 383.542H258.187V389.572H265.427V383.542H264.825Z" fill="#3F3D56"/>
<path d="M270.255 372.69H277.496V378.719H270.255V372.69Z" fill="#3F3D56"/>
<path d="M270.255 383.542H277.496V389.572H270.255V383.542Z" fill="#3F3D56"/>
<path d="M316.115 258.13V252.101H308.875V258.13H315.512H316.115Z" fill="#3F3D56"/>
<path d="M315.512 262.955H308.875V268.983H316.115V262.955H315.512Z" fill="#3F3D56"/>
<path d="M320.943 252.101H328.184V258.131H320.943V252.101Z" fill="#3F3D56"/>
<path d="M320.943 262.955H328.184V268.984H320.943V262.955Z" fill="#3F3D56"/>
<path d="M316.115 291.896V285.866H308.875V291.896H315.512H316.115Z" fill="#3F3D56"/>
<path d="M315.512 296.719H308.875V302.747H316.115V296.719H315.512Z" fill="#3F3D56"/>
<path d="M320.943 285.866H328.184V291.895H320.943V285.866Z" fill="#3F3D56"/>
<path d="M320.943 296.719H328.184V302.748H320.943V296.719Z" fill="#3F3D56"/>
<path d="M316.115 325.66V319.63H308.875V325.66H315.512H316.115Z" fill="#3F3D56"/>
<path d="M315.512 330.483H308.875V336.512H316.115V330.483H315.512Z" fill="#3F3D56"/>
<path d="M320.943 319.63H328.184V325.659H320.943V319.63Z" fill="#3F3D56"/>
<path d="M320.943 330.483H328.184V336.513H320.943V330.483Z" fill="#3F3D56"/>
<path d="M316.115 359.425V353.395H308.875V359.425H315.512H316.115Z" fill="#3F3D56"/>
<path d="M315.512 364.248H308.875V370.277H316.115V364.248H315.512Z" fill="#3F3D56"/>
<path d="M320.943 353.395H328.184V359.424H320.943V353.395Z" fill="#3F3D56"/>
<path d="M320.943 364.248H328.184V370.278H320.943V364.248Z" fill="#3F3D56"/>
<path d="M208.706 258.129H278.703V272.6H208.706V258.129Z" fill="#3F3D56"/>
<path d="M208.706 287.072H278.703V301.542H208.706V287.072Z" fill="#3F3D56"/>
<path d="M208.706 316.012H278.703V330.482H208.706V316.012Z" fill="#3F3D56"/>
<path d="M208.706 344.954H278.703V359.424H208.706V344.954Z" fill="#3F3D56"/>
<path d="M557.153 255.116L551.119 250.292L584.911 220.144H670.596V246.675L615.082 284.057L557.153 255.116Z" fill="#3F3D56"/>
<path d="M686.219 237.056V220.747H674.842V224.741L670.596 220.144L642.839 250.292L631.977 257.528L615.136 380.474L640.535 405.852H699.561V251.498L686.219 237.056Z" fill="#CCCCCC"/>
<path d="M551.119 250.292H642.84V405.852H551.119V250.292Z" fill="#F2F2F2"/>
<path d="M586.721 367.866H603.616V405.851H586.721V367.866Z" fill="#CCCCCC"/>
<path d="M568.617 378.719V372.69H561.377V378.719H568.015H568.617Z" fill="#3F3D56"/>
<path d="M568.015 383.542H561.377V389.572H568.617V383.542H568.015Z" fill="#3F3D56"/>
<path d="M573.445 372.69H580.686V378.719H573.445V372.69Z" fill="#3F3D56"/>
<path d="M573.445 383.542H580.686V389.572H573.445V383.542Z" fill="#3F3D56"/>
<path d="M618.098 378.719V372.69H610.858V378.719H617.495H618.098Z" fill="#3F3D56"/>
<path d="M617.495 383.542H610.858V389.572H618.098V383.542H617.495Z" fill="#3F3D56"/>
<path d="M622.926 372.69H630.167V378.719H622.926V372.69Z" fill="#3F3D56"/>
<path d="M622.926 383.542H630.167V389.572H622.926V383.542Z" fill="#3F3D56"/>
<path d="M668.786 258.13V252.101H661.545V258.13H668.183H668.786Z" fill="#3F3D56"/>
<path d="M668.183 262.955H661.545V268.983H668.786V262.955H668.183Z" fill="#3F3D56"/>
<path d="M673.614 252.101H680.855V258.131H673.614V252.101Z" fill="#3F3D56"/>
<path d="M673.614 262.955H680.855V268.984H673.614V262.955Z" fill="#3F3D56"/>
<path d="M668.786 291.896V285.866H661.545V291.896H668.183H668.786Z" fill="#3F3D56"/>
<path d="M668.183 296.719H661.545V302.747H668.786V296.719H668.183Z" fill="#3F3D56"/>
<path d="M673.614 285.866H680.855V291.895H673.614V285.866Z" fill="#3F3D56"/>
<path d="M673.614 296.719H680.855V302.748H673.614V296.719Z" fill="#3F3D56"/>
<path d="M668.786 325.66V319.63H661.545V325.66H668.183H668.786Z" fill="#3F3D56"/>
<path d="M668.183 330.483H661.545V336.512H668.786V330.483H668.183Z" fill="#3F3D56"/>
<path d="M673.614 319.63H680.855V325.659H673.614V319.63Z" fill="#3F3D56"/>
<path d="M673.614 330.483H680.855V336.513H673.614V330.483Z" fill="#3F3D56"/>
<path d="M668.786 359.425V353.395H661.545V359.425H668.183H668.786Z" fill="#3F3D56"/>
<path d="M668.183 364.248H661.545V370.277H668.786V364.248H668.183Z" fill="#3F3D56"/>
<path d="M673.614 353.395H680.855V359.424H673.614V353.395Z" fill="#3F3D56"/>
<path d="M673.614 364.248H680.855V370.278H673.614V364.248Z" fill="#3F3D56"/>
<path d="M561.377 258.129H631.374V272.6H561.377V258.129Z" fill="#3F3D56"/>
<path d="M561.377 287.072H631.374V301.542H561.377V287.072Z" fill="#3F3D56"/>
<path d="M561.377 316.012H631.374V330.482H561.377V316.012Z" fill="#3F3D56"/>
<path d="M561.377 344.954H631.374V359.424H561.377V344.954Z" fill="#3F3D56"/>
<path d="M750.553 255.116L744.519 250.292L778.31 220.144H864.001V246.675L808.479 284.057L750.553 255.116Z" fill="#3F3D56"/>
<path d="M879.621 237.056V220.747H868.241V224.741L864.001 220.144L836.236 250.292L825.378 257.528L808.539 380.474L833.932 405.852H892.961V251.498L879.621 237.056Z" fill="#CCCCCC"/>
<path d="M744.519 250.292H836.236V405.852H744.519V250.292Z" fill="#F2F2F2"/>
<path d="M780.121 367.866H797.016V405.851H780.121V367.866Z" fill="#CCCCCC"/>
<path d="M762.018 378.719V372.69H754.777V378.719H761.415H762.018Z" fill="#3F3D56"/>
<path d="M761.415 383.542H754.777V389.572H762.018V383.542H761.415Z" fill="#3F3D56"/>
<path d="M766.845 372.69H774.086V378.719H766.845V372.69Z" fill="#3F3D56"/>
<path d="M766.845 383.542H774.086V389.572H766.845V383.542Z" fill="#3F3D56"/>
<path d="M811.499 378.719V372.69H804.257V378.719H810.894H811.499Z" fill="#3F3D56"/>
<path d="M810.894 383.542H804.257V389.572H811.499V383.542H810.894Z" fill="#3F3D56"/>
<path d="M816.327 372.69H823.569V378.719H816.327V372.69Z" fill="#3F3D56"/>
<path d="M816.327 383.542H823.569V389.572H816.327V383.542Z" fill="#3F3D56"/>
<path d="M862.184 258.13V252.101H854.942V258.13H861.579H862.184Z" fill="#3F3D56"/>
<path d="M861.579 262.955H854.942V268.983H862.184V262.955H861.579Z" fill="#3F3D56"/>
<path d="M867.021 252.101H874.255V258.131H867.021V252.101Z" fill="#3F3D56"/>
<path d="M867.021 262.955H874.255V268.984H867.021V262.955Z" fill="#3F3D56"/>
<path d="M862.184 291.896V285.866H854.942V291.896H861.579H862.184Z" fill="#3F3D56"/>
<path d="M861.579 296.719H854.942V302.747H862.184V296.719H861.579Z" fill="#3F3D56"/>
<path d="M867.021 285.866H874.255V291.895H867.021V285.866Z" fill="#3F3D56"/>
<path d="M867.021 296.719H874.255V302.748H867.021V296.719Z" fill="#3F3D56"/>
<path d="M862.184 325.66V319.63H854.942V325.66H861.579H862.184Z" fill="#3F3D56"/>
<path d="M861.579 330.483H854.942V336.512H862.184V330.483H861.579Z" fill="#3F3D56"/>
<path d="M867.021 319.63H874.255V325.659H867.021V319.63Z" fill="#3F3D56"/>
<path d="M867.021 330.483H874.255V336.513H867.021V330.483Z" fill="#3F3D56"/>
<path d="M862.184 359.425V353.395H854.942V359.425H861.579H862.184Z" fill="#3F3D56"/>
<path d="M861.579 364.248H854.942V370.277H862.184V364.248H861.579Z" fill="#3F3D56"/>
<path d="M867.021 353.395H874.255V359.424H867.021V353.395Z" fill="#3F3D56"/>
<path d="M867.021 364.248H874.255V370.278H867.021V364.248Z" fill="#3F3D56"/>
<path d="M754.777 258.129H824.772V272.6H754.777V258.129Z" fill="#3F3D56"/>
<path d="M754.777 287.072H824.772V301.542H754.777V287.072Z" fill="#3F3D56"/>
<path d="M754.777 316.012H824.772V330.482H754.777V316.012Z" fill="#3F3D56"/>
<path d="M754.777 344.954H824.772V359.424H754.777V344.954Z" fill="#3F3D56"/>
<path d="M179.528 336.17H181.279V405.249H179.528V336.17Z" fill="#3F3D56"/>
<path d="M197.432 344.974C197.543 369.128 180.535 388.788 180.535 388.788C180.535 388.788 163.346 369.286 163.235 345.131C163.124 320.975 180.132 301.315 180.132 301.315C180.132 301.315 197.32 320.818 197.432 344.974Z" fill="#1D2088"/>
<path d="M354.552 336.17H356.301V405.249H354.552V336.17Z" fill="#3F3D56"/>
<path d="M372.454 344.974C372.565 369.128 355.557 388.788 355.557 388.788C355.557 388.788 338.368 369.286 338.257 345.131C338.146 320.975 355.154 301.315 355.154 301.315C355.154 301.315 372.343 320.818 372.454 344.974Z" fill="#0092D0"/>
<path d="M703.722 336.17H705.471V405.249H703.722V336.17Z" fill="#3F3D56"/>
<path opacity="0.9" d="M721.624 344.974C721.735 369.128 704.727 388.788 704.727 388.788C704.727 388.788 687.538 369.286 687.427 345.131C687.316 320.975 704.324 301.315 704.324 301.315C704.324 301.315 721.512 320.818 721.624 344.974Z" fill="#0092D0"/>
<path d="M506.383 142.968C506.383 147.098 491.495 150.444 473.129 150.444C454.763 150.444 439.875 147.098 439.875 142.968C439.875 138.839 454.763 135.492 473.129 135.492C491.495 135.492 506.383 138.839 506.383 142.968Z" fill="#1D2088"/>
<path d="M510.759 38.4748C510.759 59.723 472.254 119.796 472.254 119.796C472.254 119.796 433.749 59.723 433.749 38.4748C433.749 17.2259 450.988 0.00012207 472.254 0.00012207C493.52 0.00012207 510.759 17.2259 510.759 38.4748Z" fill="#1D2088"/>
<path d="M494.132 38.4747C494.132 50.548 484.336 60.3353 472.254 60.3353C460.171 60.3353 450.376 50.548 450.376 38.4747C450.376 26.4016 460.171 16.6143 472.254 16.6143C484.336 16.6143 494.132 26.4016 494.132 38.4747Z" fill="#F2F2F2"/>
</svg>
