<?xml version="1.0" encoding="UTF-8"?><svg id="_레이어_2" xmlns="http://www.w3.org/2000/svg" viewBox="0 0 132.45 99.61"><g id="_레이어_1-2"><g><path d="m39.05,99.61c-3.44-1.36-6.88-2.75-10.33-4.08-3.97-1.54-5.11-3.8-3.8-7.68.49-1.46,1-2.92,1.52-4.44-.1-.08-.24-.17-.35-.29-2.7-2.89-5.34-3.55-8.99-1.04-2.77,1.9-6.02.48-7.76-2.56-1.86-3.24-3.62-6.53-5.34-9.84-1.32-2.55-.63-5.07,1.77-6.62,1.56-1,3.21-1.88,4.91-2.87-.15-.51-.47-1.01-.4-1.43.86-4.66-2.5-5.11-5.64-5.45-3.71-.4-5.33-4.2-4.37-7.89.57-2.2,1.18-4.43,1.38-6.69.56-6.42,3.95-8.87,10-6.8,1.58.54,2.16.37,2.72-1.21.44-1.27,1.41-2.36,2.14-3.52-1.31-1.64-2.68-3.26-3.93-4.96-1.41-1.93-1.34-4.11.33-5.65,3.47-3.19,7.09-6.26,10.9-9.03,2.28-1.66,4.36-1.03,6.27,1.07.38.42.67.93,1.05,1.35,2.61,2.93,3.99,3.13,7.21.89.45-.32.74-1.24.69-1.84C38.36,1.12,40.8-.35,48.38.09c2.48.14,5.01.29,7.46-.04,3.74-.5,6.35,3.07,6.4,6.23,0,.41,0,.83,0,1.24,0,2.9,1.39,4.58,4.33,4.93.61.07,1.44-.51,1.95-1.02.86-.85,1.48-1.95,2.32-2.82,2.22-2.28,4.72-2.59,7.19-.71,3.12,2.39,6.16,4.88,9.11,7.47,2.46,2.16,2.49,5.72.27,8.14-.22.24-.5.44-.72.68-2.02,2.25-1.78,5.86.57,7.77.31.25.88.3,1.31.25,1.7-.19,3.39-.6,5.09-.66,2.88-.1,4.93,1.87,5.16,4.72.02.25-.08.55.03.74,2.51,4.59-.8,6.85-4.16,9.71-.67-3.22-1.27-6.15-1.92-9.27-2.25.47-4.46.91-6.66,1.39-1.48.32-2.45.33-3.29-1.49-1.66-3.59-3.84-6.94-5.98-10.69,1.55-1.91,3.5-4.3,5.67-6.96-2.51-2.14-4.92-4.19-7.56-6.44-1.5,1.81-3.03,3.51-4.38,5.33-1.06,1.43-1.97,1.72-3.73.92-3.47-1.59-7.13-2.78-11.08-4.28V6.14h-10.1v8.87c-4.26,1.71-8.05,3.34-11.93,4.72-.74.27-2.1-.12-2.69-.69-1.75-1.7-3.27-3.65-5.09-5.76-2.48,2.06-4.96,4.12-7.7,6.39,1.65,1.89,3.22,3.72,4.84,5.5.94,1.03,1.22,1.9.35,3.25-1.97,3.03-3.64,6.25-5.59,9.29-.42.65-1.54,1.29-2.27,1.22-1.94-.19-3.82-.9-5.75-1.12-.69-.08-2.02.53-2.13,1.03-.57,2.7-.84,5.46-1.26,8.5,2.68.58,5.11,1.24,7.59,1.6,1.44.21,1.6.89,1.76,2.11.43,3.38,1.18,6.72,1.55,10.1.1.91-.42,2.27-1.13,2.8-1.9,1.43-4.06,2.52-6.28,3.85,1.47,2.65,2.89,5.29,4.43,7.85.17.28,1.17.35,1.59.14,1.89-.96,3.67-2.16,5.6-3.04.66-.3,1.9-.19,2.43.26,3.17,2.67,6.21,5.5,9.55,8.51-.62,1.88-1.24,4.41-2.3,6.75-.74,1.63.31,1.86,1.21,2.22,2.03.81,4.09,1.59,6.19,2.15.56.15,1.69-.35,1.97-.87.75-1.41,1.38-2.95,1.7-4.52.44-2.16,1.59-2.68,3.66-2.6,3.85.16,7.72.05,11.69.05.78,2.22,1.46,4.34,2.28,6.4.48,1.19.85,2.52,2.81,1.29,1.54-.97,3.48-1.36,5.29-1.83,1.91-.49,2.05-1.61,1.45-3.17-.72-1.85-1.44-3.69-1.74-5.88,2.85,2.81,5.84,5.49,8.48,8.48,1.2,1.36-.72,4.36-3.24,5.32-3.16,1.21-6.36,2.3-9.54,3.49-.38.14-.67.54-1,.82h-3.99c-1.48-2.17-3.29-4.19-4.31-6.55-.59-1.35-1.05-1.82-2.35-1.77-.99.04-2.04-.2-2.96.07-.82.24-1.98.89-2.13,1.55-.61,2.78-1.93,5-4.19,6.7h-3.49Z"/><path d="m57.95,67.17c5.46-5.57,10.82-11.04,16.39-16.72,3.07,3.13,6.05,6.05,8.88,9.11,1.22,1.32,2.04,1.12,3.17-.02,9.17-9.25,18.37-18.47,27.55-27.7,2.31-2.33,2.28-2.33,4.7.1,4.33,4.35,8.65,8.7,13.02,13,.95.93,1.12,1.41.01,2.51-13.36,13.25-26.65,26.58-39.94,39.89-1.84,1.85-3.56,3.82-5.49,5.57-.51.46-1.99.73-2.33.38-8.68-8.59-17.26-17.28-25.86-25.95-.06-.06-.09-.14-.1-.17Zm58.86-28.68c-10.86,10.87-21.15,21.16-31.92,31.94-3.78-3.94-7.26-7.56-10.73-11.17-2.59,2.6-5.12,5.14-7.75,7.79,5.79,5.75,11.59,11.43,17.28,17.22,1.21,1.23,1.77.96,2.82-.12,4.76-4.85,9.63-9.58,14.44-14.38,7.29-7.29,14.58-14.58,21.8-21.95.47-.48.74-1.88.41-2.28-1.97-2.4-4.14-4.64-6.35-7.04Z"/><path d="m62.44,57.61c.03-.56-.11-1.21.12-1.68,2.35-4.91,2-9.5-1.01-14.12-2.98-4.57-10.21-7.21-15.84-4.92-5.29,2.15-8.22,6.23-9.01,11.57-.71,4.81,2.54,11.8,8.63,13.87,4.9,1.67,9.42,1.13,13.66-1.81-1.26,1.52-2.52,3.04-3.79,4.54-.89,1.05-2.42,1.98-.37,3.48-4.35,2.5-8.5.99-12.14-.68-9.1-4.18-13.38-12.01-11.77-21.48,1.34-7.92,6.22-13.38,14.4-15.73,10.63-3.06,21.44,3.72,24.29,13.79.86,3.03,1.4,6.22-2.13,8.48-1.9,1.22-3.37,3.1-5.03,4.68Z"/><path d="m93.69,47.71c-2.8,2.84-5.63,5.69-8.92,9.03.34-2.78.2-5.16,1.06-7.08.41-.91,2.71-1.05,4.19-1.4,1.15-.28,2.35-.35,3.67-.54Z"/></g></g></svg>