<?xml version="1.0" encoding="UTF-8"?><svg id="_레이어_2" xmlns="http://www.w3.org/2000/svg" viewBox="0 0 101.84 104.88"><g id="_레이어_1-2"><g><path d="m52.43,0c3.11,1.26,6.32,2.35,9.32,3.84,4.94,2.44,8.62,6.3,11.15,11.18.85,1.64,1.8,2.37,3.77,2.43,15.67.42,27.18,14.23,24.89,29.69-1.44,9.72-9.98,18.77-19.66,20.6-2.82.54-5.74.84-8.61.85-17.33.08-34.67.09-52,.02-8.54-.04-15.02-3.75-19.16-11.36-5.99-11.03,1.32-26.29,13.75-28.37,2.36-.4,3.08-1.32,3.34-3.61C20.65,13,28.92,3.83,40.95.84,41.65.67,42.3.29,42.97,0,46.12,0,49.28,0,52.43,0Zm-4.28,61.99c8.7,0,17.42.22,26.11-.11,3.54-.13,7.3-.9,10.52-2.35,8.19-3.69,12.16-13.28,9.57-21.84-2.7-8.95-11.31-14.54-21.11-13.58-2.37.23-3.83-.31-4.76-2.76-2.64-6.96-7.55-11.53-14.78-13.75-9-2.77-20,1.33-24.79,9.4-2.45,4.13-3.49,8.52-3.12,13.29.27,3.48-.93,4.74-4.35,4.69-.66,0-1.33-.04-1.99,0-9.25.66-15.13,9.86-11.75,18.38,2.09,5.28,7.33,8.59,13.83,8.63,8.87.04,17.74.01,26.61.01Z"/><path d="m27.25,75.76c-.69,1.28-1,2.35-1.69,3.06-2.84,2.98-5.77,5.88-8.71,8.77-1.55,1.53-3.79,1.7-5.11.48-1.53-1.42-1.56-3.17.17-4.97,3.07-3.2,6.17-6.38,9.46-9.35.79-.71,2.51-.95,3.56-.63.92.28,1.5,1.66,2.32,2.65Z"/><path d="m47.9,75.9c-.82,1.28-1.32,2.43-2.14,3.27-2.79,2.89-5.69,5.67-8.56,8.49-1.4,1.37-3.67,1.6-4.88.5-1.28-1.15-1.4-3.51-.03-4.93,3.2-3.3,6.44-6.57,9.85-9.65.71-.64,2.39-.82,3.33-.45.95.38,1.54,1.69,2.43,2.77Z"/><path d="m35.83,104.88c-.96-.73-2.29-1.23-2.59-2.09-.38-1.1-.42-2.94.25-3.68,3.13-3.49,6.46-6.82,9.92-9.99,1.36-1.24,3.24-1.19,4.67.31,1.39,1.46,1.2,3.05-.12,4.4-3.14,3.24-6.34,6.42-9.58,9.57-.61.59-1.49.88-2.54,1.48Z"/><path d="m75.26,89.06c-.71-.46-2-.83-2.29-1.59-.42-1.08-.63-2.93-.01-3.61,3.37-3.71,6.93-7.27,10.66-10.61.63-.56,2.71-.14,3.68.5,1.59,1.05,1.75,2.86.39,4.31-3.26,3.47-6.61,6.85-10,10.19-.47.46-1.37.48-2.42.82Z"/><path d="m15.11,104.81c-.88-.73-2.13-1.32-2.57-2.28-.4-.86-.32-2.52.27-3.17,3.25-3.59,6.58-7.12,10.2-10.31.8-.71,3.19-.49,4.27.2,1.55.99,1.55,3.05.27,4.4-3.33,3.52-6.84,6.87-10.33,10.24-.42.41-1.14.51-2.1.92Z"/><path d="m66.68,88.17c.65.5,2,1.01,2.22,1.83.32,1.19.33,3.04-.39,3.83-3.16,3.47-6.59,6.69-9.99,9.92-1.26,1.2-2.72,1.07-3.99-.11-1.26-1.17-2.08-2.67-.73-4.12,3.41-3.65,6.95-7.17,10.51-10.68.41-.4,1.23-.37,2.37-.67Z"/><path d="m54.55,89.01c-.61-.44-1.89-.89-2.25-1.73-.42-.97-.51-2.73.09-3.39,3.32-3.64,6.84-7.09,10.4-10.5,1.24-1.19,2.76-.96,4.02.21,1.23,1.14,1.78,2.74.65,3.98-3.45,3.76-7.1,7.33-10.72,10.91-.35.34-1.09.28-2.18.52Z"/></g></g></svg>