<?xml version="1.0" encoding="UTF-8"?><svg id="_레이어_2" xmlns="http://www.w3.org/2000/svg" viewBox="0 0 104.51 102.39"><g id="_레이어_1-2"><g><path d="m0,84.57c0-16.92,0-33.84,0-50.76,1.03-1.36,1.85-3,3.15-4.02,3.41-2.69,7.32-2.96,11.25-1.23,6.06,2.68,12.03,5.54,18.1,8.19,1.21.53,2.85.94,4,.55,3.01-1.02,5.87-2.52,8.73-3.8-3.62-13.77-1.21-22.58,7.77-29.04,7.99-5.75,18.61-5.97,26.86-.54,4.13,2.72,7.13,6.39,9.02,10.96,2.47,5.98,2.18,11.93-.42,17.95,3.71,1.58,7.22,3.01,10.68,4.56,3.38,1.51,5.38,3.98,5.38,7.88-.03,15.34,0,30.67-.02,46.01,0,3.71-1.96,6.43-5.41,7.83-3.29,1.34-6.45.98-9.64-.39-6.54-2.82-13.13-5.52-19.64-8.38-1.98-.87-3.71-.9-5.69.03-7.72,3.62-15.51,7.08-23.24,10.68-3.79,1.76-7.44,1.79-11.23,0-7.49-3.52-15.01-6.99-22.6-10.3-3.08-1.34-5.57-3.13-7.05-6.18Zm31.38,9.22c0-12.8,0-25.07,0-37.33,0-.9,0-1.85.25-2.7.51-1.68,1.84-2.9,3.51-2.43,1.29.36,2.47,1.6,3.35,2.72.46.58.21,1.76.21,2.67,0,11.44,0,22.88,0,34.32,0,.86,0,1.71,0,2.94,7.67-3.5,14.94-6.68,22.09-10.12,4.04-1.94,7.89-2,11.95-.21,6.36,2.8,12.78,5.49,19.19,8.18.9.38,1.88.66,2.84.75,1.56.15,2.43-.46,2.42-2.27-.05-14.76-.02-29.51-.08-44.27,0-.67-.48-1.7-1.02-1.95-3.43-1.59-6.95-3.01-10.54-4.53-.55.98-.96,1.78-1.43,2.54-4.6,7.37-9.14,14.79-13.86,22.09-2.05,3.17-4.8,3.09-6.93.05-1.8-2.58-3.62-5.16-5.28-7.83-3.31-5.32-6.53-10.71-9.87-16.22-2.46,1.11-4.94,2.21-7.4,3.37-3.77,1.77-7.46,1.72-11.24-.07-5.83-2.77-11.71-5.45-17.61-8.07-3.23-1.44-4.63-.48-4.63,2.94,0,12.77.28,25.54-.13,38.3-.15,4.81,1.3,7.2,5.74,8.87,6.16,2.32,12.05,5.36,18.45,8.27Zm35.48-37.26c1.94-3.01,3.8-5.47,5.21-8.17,3.67-7.02,7.59-13.95,10.54-21.27,2.39-5.94-.81-12.99-6.42-16.87-5.62-3.9-13.24-3.84-18.89.13-5.48,3.85-8.32,10.98-6.33,16.99,3.49,10.54,9.64,19.68,15.89,29.2Z"/><path d="m66.9,29.83c-3.33.03-6.05-2.59-6.13-5.91-.09-3.4,2.65-6.15,6.11-6.14,3.39.02,5.95,2.6,5.96,5.99,0,3.39-2.58,6.02-5.94,6.05Z"/></g></g></svg>