<?xml version="1.0" encoding="UTF-8"?><svg id="_레이어_2" xmlns="http://www.w3.org/2000/svg" viewBox="0 0 95.74 95.72"><g id="_레이어_1-2"><g><path d="m47.71,95.72C21.19,95.66-.07,74.24,0,47.65.07,21.16,21.54-.09,48.15,0c26.34.09,47.66,21.57,47.59,47.96-.06,26.55-21.45,47.82-48.03,47.76ZM8.63,47.93c.05,21.48,17.73,39.18,39.13,39.17,21.74-.01,39.44-17.76,39.36-39.45-.08-21.44-17.81-39.06-39.26-39.03-21.61.04-39.28,17.74-39.23,39.31Z"/><path d="m43.48,54.37c0-4.72-.02-9.44,0-14.16.02-3.43,1.69-5.4,4.48-5.35,2.7.05,4.29,1.96,4.3,5.28.02,9.52.02,19.05,0,28.57,0,3.28-1.65,5.21-4.35,5.24-2.68.02-4.4-1.94-4.42-5.17-.03-4.8,0-9.61,0-14.41Z"/><path d="m52.24,26.1c-.02,2.4-2.09,4.39-4.5,4.33-2.28-.06-4.25-2.07-4.25-4.34,0-2.4,2.07-4.38,4.5-4.31,2.33.07,4.26,2.03,4.24,4.32Z"/></g></g></svg>