<?xml version="1.0" encoding="UTF-8"?><svg id="_레이어_2" xmlns="http://www.w3.org/2000/svg" viewBox="0 0 123.51 84.67"><g id="_레이어_1-2"><path d="m123.51,36.85c-1.63.46-3.26,1.27-4.9,1.31-5.89.16-11.79.06-17.84.06v39.26c1.35,0,2.58-.06,3.8.01,2.41.13,3.94,1.62,3.87,3.67-.07,1.98-1.55,3.42-3.83,3.45-5.08.06-10.17.07-15.25,0-2.24-.03-3.72-1.58-3.73-3.56,0-1.97,1.47-3.4,3.74-3.55,1.23-.08,2.47-.01,3.89-.01v-39.08H30.74v39.08c1.34,0,2.65-.07,3.95.02,2.29.15,3.72,1.57,3.7,3.57-.02,2-1.47,3.5-3.74,3.53-5.08.07-10.17.07-15.25,0-2.27-.03-3.76-1.5-3.82-3.48-.06-2.03,1.49-3.51,3.9-3.64,1.22-.06,2.44-.01,3.79-.01v-39.11c-.9-.05-1.77-.14-2.64-.14-5.25-.01-10.5.01-15.75-.01-3.62-.02-4.86-1.24-4.87-4.74C0,23.86,0,14.24.01,4.62.02,1.24,1.27,0,4.71,0,42.87,0,81.03-.02,119.19.07c1.44,0,2.87.95,4.31,1.45v35.33ZM7.43,7.27v23.67c3.16,0,6.15-.1,9.12.04,1.63.08,2.35-.56,2.88-2.01,2.5-6.84,5.1-13.65,7.64-20.47.13-.35.13-.74.21-1.24H7.43Zm109.12,23.55V7.17c-1.54,0-2.87,0-4.19,0q-6.9,0-9.32,6.31c-.12.31-.25.61-.37.92-2.02,5.41-4.05,10.82-6.14,16.42h20.02Zm-90.14.12c4.83,0,9.25-.07,13.65.04,1.55.04,2.18-.58,2.67-1.92,1.92-5.3,3.95-10.55,5.93-15.83.71-1.89,1.4-3.79,2.24-6.05-5.15,0-9.8-.04-14.44.06-.53.01-1.31.7-1.52,1.25-2.84,7.33-5.59,14.69-8.52,22.45ZM97.64,7.19c-5.16,0-9.88-.03-14.6.05-.48,0-1.2.62-1.39,1.11-2.79,7.34-5.51,14.7-8.23,22.06-.04.1.13.26.27.53,4.5,0,9.07.05,13.63-.06.62-.01,1.55-.65,1.78-1.22,2.85-7.31,5.59-14.66,8.54-22.48Zm-47.88,23.76c4.8,0,9.2-.06,13.59.03,1.48.03,2.2-.45,2.71-1.84,2.53-6.91,5.16-13.77,7.74-20.66.13-.34.06-.76.1-1.3-4.72,0-9.29-.05-13.85.06-.62.01-1.56.67-1.78,1.24-2.84,7.31-5.57,14.65-8.51,22.47Z"/></g></svg>