<?xml version="1.0" encoding="UTF-8"?><svg id="_레이어_2" xmlns="http://www.w3.org/2000/svg" viewBox="0 0 115.25 102.33"><g id="_레이어_1-2"><g><path d="m60.9,96.44c-3.73,0-7.46,0-11.2,0-1.72,0-3.27-.4-3.34-2.47-.07-2.18,1.39-2.78,3.29-2.78,7.05,0,14.1-.06,21.15.02,1.75.02,2.82-.37,3.69-2.09,1.73-3.4,5.82-4.93,9.61-3.98,3.91.98,6.39,4.24,6.39,8.42,0,4.32-2.36,7.38-6.59,8.52-3.42.92-7.71-.73-9.42-3.94-.77-1.45-1.69-1.77-3.15-1.74-3.48.07-6.97.02-10.45.02h0Zm24.48-2.71c.06-1.96-1.35-3.52-3.26-3.63-2-.11-3.68,1.45-3.72,3.46-.04,1.86,1.53,3.47,3.42,3.52,1.88.05,3.5-1.48,3.56-3.35Z"/><path d="m24.01,9.06c-.03-3.75,2.63-7.4,6.16-8.46,3.83-1.16,7.91.31,10.04,4.04.97,1.71,2.09,2,3.79,1.99,6.55-.05,13.09,0,19.64.02.75,0,1.68-.24,2.19.12.97.66,2.36,1.69,2.34,2.54-.01.85-1.47,2.29-2.41,2.39-2.86.33-5.79.14-8.69.14-4.47,0-8.95.04-13.42-.04-1.64-.03-2.69.38-3.64,1.88-2.24,3.53-6.11,4.82-9.97,3.64-3.48-1.06-6.01-4.53-6.04-8.28Zm8.74-3.57c-1.9,0-3.43,1.5-3.48,3.43-.05,2.06,1.5,3.63,3.54,3.59,1.86-.04,3.43-1.66,3.4-3.53-.02-1.84-1.66-3.49-3.47-3.49Z"/><path d="m115.25,51.53c-.03,5.02-3.82,8.82-8.92,8.6-1.84-.08-2.65.62-3.48,2.03-3.24,5.49-6.57,10.93-9.87,16.38-.39.64-.81,1.25-1.21,1.88-.96,1.51-2.23,2.39-3.93,1.3-1.69-1.09-1.41-2.54-.46-4.09,3.47-5.64,6.85-11.34,10.35-16.96,1.25-2,2.17-3.57.77-6.22-1.71-3.25-.64-6.74,2.07-9.29,2.7-2.54,5.99-3.07,9.47-1.65,3.26,1.33,5.22,4.43,5.2,8.04Zm-8.76-3.54c-1.87.03-3.45,1.64-3.43,3.51.02,1.85,1.64,3.5,3.45,3.52,1.97.02,3.57-1.65,3.51-3.67-.06-1.91-1.61-3.39-3.54-3.36Z"/><path d="m10.36,42.17c.26-.24,1.29-.83,1.84-1.71,3.69-5.9,7.28-11.86,10.9-17.8.17-.28.33-.58.52-.85.92-1.34,2.04-2.35,3.71-1.32,1.68,1.03,1.68,2.51.72,4.08-2.8,4.6-5.6,9.19-8.4,13.79-.43.71-.79,1.46-1.28,2.12-1.85,2.53-2.98,4.83-1.33,8.26,1.62,3.38-.44,7.49-3.76,9.63-2.83,1.82-6.96,1.66-9.59-.37-3.18-2.46-4.47-6.43-3.21-9.96,1.32-3.72,4.66-5.93,9.89-5.88Zm-1.7,5.24c-1.87.05-3.45,1.68-3.41,3.52.04,1.83,1.69,3.49,3.48,3.51,1.97.01,3.55-1.67,3.48-3.69-.07-1.96-1.59-3.39-3.55-3.34Z"/><path d="m81.93,0c6.67-.09,10.89,7.16,7.56,13.19-.8,1.45-.79,2.48,0,3.83,3.32,5.65,6.56,11.34,9.83,17.02.33.57.67,1.15.98,1.73.85,1.59.92,3.12-.85,4.06-1.68.89-2.88-.09-3.7-1.5-3.61-6.24-7.21-12.49-10.74-18.78-.81-1.44-1.68-2.11-3.46-2.13-4.73-.05-8.38-4.12-8.25-8.82C73.44,3.9,77.29.07,81.93,0Zm.15,12.31c1.92-.03,3.41-1.57,3.4-3.52-.01-1.9-1.57-3.54-3.41-3.57-1.92-.04-3.6,1.73-3.54,3.7.07,1.94,1.61,3.41,3.55,3.39Z"/><path d="m23.93,93.56c.49-1.47.71-3.13,1.55-4.36,1.05-1.54.72-2.61-.11-4.02-3.57-6.07-7.03-12.2-10.55-18.29-.87-1.51-1.3-3.01.4-4.14,1.84-1.22,3.06-.23,4.02,1.43,3.55,6.18,7.17,12.31,10.66,18.52.85,1.52,1.7,2.29,3.6,2.3,4.64.02,8.42,4.2,8.28,8.79-.15,4.66-4.35,8.65-8.99,8.53-4.68-.12-8.51-3.99-8.84-8.75Zm9.02-3.5c-1.99,0-3.42,1.41-3.47,3.4-.05,2.01,1.58,3.64,3.58,3.58,1.82-.06,3.48-1.78,3.43-3.56-.05-1.85-1.69-3.42-3.54-3.42Z"/><path d="m30.71,49.98c.43-13.41,12.41-25.19,25.52-25.34,1.74-.02,3.28.3,3.35,2.4.07,1.95-1.34,2.55-2.99,2.52-10.33-.15-20.55,8.79-21.05,21.02-.07,1.68-.71,3.12-2.59,2.93-2.13-.22-2.41-1.95-2.24-3.54Z"/><path d="m58.47,77.76c-1.72.11-3.31-.2-3.53-2.23-.23-2.14,1.37-2.51,3.08-2.68,12.44-1.28,19.71-8.67,20.85-21.19.15-1.62.76-2.85,2.47-2.81,2.02.05,2.49,1.53,2.46,3.31-.19,13.28-11.99,25.21-25.33,25.6Z"/><path d="m57.17,59.7c-4.78-.03-8.42-3.74-8.41-8.57.02-4.82,3.7-8.45,8.54-8.42,4.78.03,8.55,3.83,8.49,8.56-.06,4.74-3.87,8.46-8.63,8.43Zm3.67-8.65c-.07-2.03-1.74-3.57-3.77-3.47-2.03.1-3.62,1.81-3.51,3.77.11,1.98,1.84,3.57,3.81,3.51,1.96-.06,3.53-1.79,3.47-3.81Z"/><path d="m75.16,52.44c-.63,8.72-8.58,16.42-17.19,16.51-1.59.02-2.88-.42-3.05-2.18-.17-1.75.9-2.46,2.56-2.65,7.67-.91,11.47-4.69,12.69-12.28.17-1.04,1.02-2.11,1.85-2.84.34-.3,1.78.05,2.14.53.58.78.69,1.92,1,2.9Z"/><path d="m39.49,50.12c.42-8.84,7.95-16.28,16.75-16.55,1.57-.05,3.17.01,3.32,2.06.14,2.05-1.22,2.54-3.03,2.72-7.07.71-11.44,5.14-12.1,12.18-.16,1.68-.72,3.08-2.58,2.99-1.99-.1-2.49-1.62-2.35-3.4Z"/></g></g></svg>