<svg width="229" height="220" viewBox="0 0 229 220" fill="none" xmlns="http://www.w3.org/2000/svg">
<circle cx="120" cy="111" r="109" fill="#FFE900"/>
<circle cx="109" cy="109" r="109" fill="white"/>
<path d="M62.9386 139.95C74.673 129.85 86.4075 119.749 98.3036 109.507C86.4572 99.3067 74.6979 89.1813 62.6566 78.8143C62.5405 79.893 62.4161 80.6719 62.3871 81.4591C62.3291 82.9627 62.4203 84.4788 62.2793 85.9741C62.1217 87.6193 60.8156 88.6939 59.2234 88.7064C57.6436 88.7189 56.1135 87.6318 56.1052 86.0491C56.0928 83.1085 55.9684 80.068 56.6277 77.244C57.9297 71.6836 62.9801 68.0433 68.8058 68.0224C81.9459 67.9849 95.0901 68.0058 108.234 68.0058C127.793 68.0058 147.352 67.9933 166.907 68.0141C173.346 68.0224 178.372 71.996 179.698 78.1145C179.947 79.2683 179.98 80.4845 179.984 81.6757C180.001 100.227 180.005 118.779 179.993 137.33C179.989 145.727 174.689 151 166.289 151C134.104 151 101.923 151 69.7388 151C61.3049 151 56.0182 145.656 56.0099 137.163C56.0099 135.968 55.9809 134.773 56.0223 133.577C56.0887 131.661 57.3202 130.366 59.07 130.308C60.9068 130.245 62.2586 131.491 62.3415 133.498C62.4244 135.602 62.3622 137.705 62.3622 139.812C62.5571 139.858 62.7479 139.904 62.9427 139.95H62.9386ZM67.4624 74.4909C68.0802 75.0448 68.4119 75.3572 68.7561 75.6571C84.2803 88.998 99.8088 102.343 115.337 115.68C117.348 117.404 118.741 117.371 120.811 115.592C136.376 102.218 151.942 88.8397 167.504 75.4572C167.781 75.2198 168.005 74.9157 168.395 74.4909H67.4624ZM67.4458 144.49H168.59C156.478 134.06 144.682 123.893 132.835 113.693C132.354 114.089 131.952 114.409 131.566 114.743C129.103 116.883 126.674 119.066 124.182 121.169C120.33 124.418 115.549 124.372 111.751 121.094C109.358 119.029 106.99 116.938 104.606 114.863C104.154 114.468 103.682 114.097 103.192 113.689C91.2961 123.935 79.5368 134.069 67.4458 144.49ZM173.47 78.7435C161.354 89.1729 149.603 99.29 137.736 109.511C149.657 119.774 161.413 129.891 173.47 140.271V78.7435Z" fill="black"/>
<path d="M43.3687 122.596C38.0267 122.596 32.6846 122.586 27.3425 122.596C25.5553 122.596 24.1139 122.007 23.3299 120.318C22.4144 118.332 23.4808 115.951 25.5846 115.333C26.3248 115.114 27.138 115.07 27.922 115.07C38.3042 115.056 48.6864 115.061 59.0687 115.061C59.5556 115.061 60.0426 115.051 60.5247 115.114C62.6576 115.392 64.0212 116.862 64.0114 118.848C64.0017 120.897 62.5262 122.459 60.3056 122.557C58.0655 122.654 55.8157 122.591 53.5659 122.591C50.1668 122.591 46.7678 122.591 43.3639 122.591L43.3687 122.596Z" fill="black"/>
<path d="M49.0907 96.418C52.6115 96.418 56.1371 96.3985 59.6579 96.4229C62.3168 96.4424 63.9481 97.8345 64.0066 100.054C64.0699 102.366 62.4288 103.919 59.7164 103.933C52.6699 103.972 45.6283 103.968 38.5818 103.933C35.8791 103.919 34.1455 102.352 34.1893 100.112C34.2283 97.8783 35.9717 96.4375 38.7084 96.4229C42.1708 96.4034 45.6332 96.4229 49.0907 96.4229V96.418Z" fill="black"/>
</svg>
